<?xml version="1.0" encoding="UTF-8"?>
<svg id="Layer_2" data-name="Layer 2" xmlns="http://www.w3.org/2000/svg" xmlns:xlink="http://www.w3.org/1999/xlink" viewBox="0 0 114.27 111.31">
  <defs>
    <style>
      .cls-1 {
        fill: #7961d0;
      }

      .cls-1, .cls-2, .cls-3, .cls-4, .cls-5 {
        stroke-width: 0px;
      }

      .cls-6 {
        filter: url(#drop-shadow-1);
      }

      .cls-2 {
        fill: #2d1e61;
      }

      .cls-3 {
        fill: #5b3ec6;
      }

      .cls-4 {
        fill: #6675d7;
      }

      .cls-5 {
        fill: #402b8b;
      }
    </style>
    <filter id="drop-shadow-1" filterUnits="userSpaceOnUse">
      <feOffset dx="2" dy="2"/>
      <feGaussianBlur result="blur" stdDeviation="2"/>
      <feFlood flood-color="#000" flood-opacity=".11"/>
      <feComposite in2="blur" operator="in"/>
      <feComposite in="SourceGraphic"/>
    </filter>
  </defs>
  <g id="Layer_1-2" data-name="Layer 1">
    <g class="cls-6">
      <path class="cls-1" d="m114.23,58.1c-4.71-24.39-20.15-43.53-41.33-51.18l-1.66-.61,1.19-3.27c.42-1.19-.19-2.49-1.36-2.91-.25-.1-.52-.13-.77-.13-.92,0-1.82.57-2.14,1.49l-1.19,3.29-1.66-.59C44.13-3.48,20.05,1.36.84,17.12c-.77.61-1.03,1.65-.69,2.54.23.65.75,1.11,1.36,1.34.27.1.55.15.84.13,9.13-.34,19.71,1.8,25.6,5.99v17.35h1.72c2.12-1.45,5.05-2.91,8.76-4.36,3.73-1.45,7.23-2.18,10.54-2.18,4.4,0,7.84.88,10.33,2.66,2.49,1.76,3.71,4.59,3.71,8.49,0,2.79-.69,5.2-2.07,7.25-1.38,2.05-3.14,3.85-5.3,5.38-2.05,1.49-4.42,2.76-7.12,3.79-2.69,1.01-5.14,1.81-7.34,2.41,0,0,0,0,0,0h0s0,0,0,0v19.78h20.18s0,0,0,0h0v-13.46c3.62-1.45,6.89-3.06,9.83-4.84,2.93-1.76,5.43-3.77,7.52-6.01,2.12-2.3,3.77-4.97,4.94-8.07.78-2.1,1.3-4.4,1.55-6.89,7.35-.29,17.89,5.18,25.27,11.8.73.65,1.78.77,2.64.29.82-.48,1.28-1.45,1.11-2.41Z"/>
      <rect class="cls-1" x="39.77" y="95.72" width="23.25" height="15.59"/>
    </g>
    <g>
      <path class="cls-3" d="m81.44,49.23c-.88.38-1.87.19-2.53-.46-5.62-5.59-11.79-9.76-18.48-12.49l-4.29-1.55c-6.89-2.18-14.31-2.91-22.19-2.2-.94.06-1.82-.42-2.24-1.28-.77-1.55-2.07-2.93-3.77-4.11v17.35h1.72c2.12-1.45,5.05-2.91,8.76-4.36,3.73-1.45,7.23-2.18,10.54-2.18,4.4,0,7.84.88,10.33,2.66,2.49,1.76,3.71,4.59,3.71,8.49,0,2.79-.69,5.2-2.07,7.25-1.38,2.05-3.14,3.85-5.3,5.38-2.05,1.49-4.42,2.76-7.12,3.79-2.7,1.01-5.15,1.82-7.35,2.41v19.78h20.18v-13.47c3.62-1.45,6.89-3.06,9.83-4.84,2.93-1.76,5.43-3.77,7.52-6.01,2.12-2.3,3.77-4.97,4.94-8.07.78-2.1,1.3-4.4,1.55-6.89-1.4.04-2.66.29-3.77.8Z"/>
      <path class="cls-5" d="m113.12,60.51c-.86.48-1.91.36-2.64-.29-7.38-6.62-17.93-12.09-25.27-11.8.13-1.15.19-2.35.19-3.58,0-3.35-.69-6.43-2.05-9.24-1.36-2.81-3.33-5.26-5.93-7.35-2.68-2.09-5.91-3.71-9.7-4.88-3.81-1.17-8.19-1.74-13.14-1.74-5.55,0-10.73.57-15.59,1.72-4.84,1.13-8.51,2.26-11.04,3.35v.42c-5.89-4.19-16.47-6.33-25.6-5.99-.29.02-.57-.04-.84-.13-.61-.23-1.13-.69-1.36-1.34-.34-.9-.08-1.93.69-2.54C20.05,1.36,44.13-3.48,65.31,4.19l1.66.59,1.19-3.29C68.49.57,69.39,0,70.3,0c.25,0,.52.04.77.13,1.17.42,1.78,1.72,1.36,2.91l-1.19,3.27,1.66.61c21.18,7.65,36.62,26.78,41.33,51.18.17.96-.29,1.93-1.11,2.41Z"/>
      <path class="cls-4" d="m85.4,44.85c0,1.22-.06,2.43-.19,3.58-1.4.04-2.66.29-3.77.8-.88.38-1.87.19-2.53-.46-5.62-5.59-11.79-9.76-18.48-12.49l-4.29-1.55c-6.89-2.18-14.31-2.91-22.19-2.2-.94.06-1.82-.42-2.24-1.28-.77-1.55-2.07-2.93-3.77-4.11v-.42c2.53-1.09,6.2-2.22,11.04-3.35,4.86-1.15,10.04-1.72,15.59-1.72,4.96,0,9.34.57,13.14,1.74,3.79,1.17,7.02,2.79,9.7,4.88,2.6,2.09,4.57,4.53,5.93,7.35,1.36,2.81,2.05,5.89,2.05,9.24Z"/>
      <path class="cls-2" d="m83.35,35.6c-1.36-2.81-3.33-5.26-5.93-7.35-2.68-2.09-5.91-3.71-9.7-4.88-3.81-1.17-8.19-1.74-13.14-1.74-5.55,0-10.73.57-15.59,1.72-4.84,1.13-8.51,2.26-11.04,3.35v.42c1.7,1.19,3,2.56,3.77,4.11.42.86,1.3,1.34,2.24,1.28,7.88-.71,15.31.02,22.19,2.2l4.29,1.55c6.7,2.74,12.86,6.91,18.48,12.49.65.65,1.65.84,2.53.46,1.11-.52,2.37-.77,3.77-.8.13-1.15.19-2.35.19-3.58,0-3.35-.69-6.43-2.05-9.24Z"/>
      <rect class="cls-5" x="39.77" y="95.72" width="23.25" height="15.59"/>
      <path class="cls-1" d="m41.19,67.91v19.78h20.18s-19.95-19.84-20.18-19.78Z"/>
    </g>
  </g>
</svg>