<?xml version="1.0" encoding="UTF-8"?>
<svg id="Layer_2" data-name="Layer 2" xmlns="http://www.w3.org/2000/svg" viewBox="0 0 556.56 112.09">
  <defs>
    <style>
      .cls-1 {
        fill: #7961d0;
      }

      .cls-1, .cls-2, .cls-3, .cls-4, .cls-5 {
        stroke-width: 0px;
      }

      .cls-2 {
        fill: #2d1e61;
      }

      .cls-3 {
        fill: #5b3ec6;
      }

      .cls-4 {
        fill: #6675d7;
      }

      .cls-5 {
        fill: #402b8b;
      }
    </style>
  </defs>
  <g id="Layer_1-2" data-name="Layer 1">
    <path class="cls-3" d="m523.73,49.23c-.88.38-1.87.19-2.53-.46-5.62-5.59-11.79-9.76-18.48-12.49l-4.29-1.55c-6.89-2.18-14.31-2.91-22.19-2.2-.94.06-1.82-.42-2.24-1.28-.77-1.55-2.07-2.93-3.77-4.11v17.35h1.72c2.12-1.45,5.05-2.91,8.76-4.36,3.73-1.45,7.23-2.18,10.54-2.18,4.4,0,7.84.88,10.33,2.66,2.49,1.76,3.71,4.59,3.71,8.49,0,2.79-.69,5.2-2.07,7.25-1.38,2.05-3.14,3.85-5.3,5.38-2.05,1.49-4.42,2.76-7.12,3.79-2.7,1.01-5.15,1.82-7.35,2.41v19.78h20.18v-13.47c3.62-1.45,6.89-3.06,9.83-4.84,2.93-1.76,5.43-3.77,7.52-6.01,2.12-2.3,3.77-4.97,4.94-8.07.78-2.1,1.3-4.4,1.55-6.89-1.4.04-2.66.29-3.77.8Z"/>
    <path class="cls-5" d="m555.41,60.51c-.86.48-1.91.36-2.64-.29-7.38-6.62-17.93-12.09-25.27-11.8.13-1.15.19-2.35.19-3.58,0-3.35-.69-6.43-2.05-9.24-1.36-2.81-3.33-5.26-5.93-7.35-2.68-2.09-5.91-3.71-9.7-4.88-3.81-1.17-8.19-1.74-13.14-1.74-5.55,0-10.73.57-15.59,1.72-4.84,1.13-8.51,2.26-11.04,3.35v.42c-5.89-4.19-16.47-6.33-25.6-5.99-.29.02-.57-.04-.84-.13-.61-.23-1.13-.69-1.36-1.34-.34-.9-.08-1.93.69-2.54,19.21-15.76,43.3-20.61,64.47-12.93l1.66.59,1.19-3.29c.33-.92,1.22-1.49,2.14-1.49.25,0,.52.04.77.13,1.17.42,1.78,1.72,1.36,2.91l-1.19,3.27,1.66.61c21.18,7.65,36.62,26.78,41.33,51.18.17.96-.29,1.93-1.11,2.41Z"/>
    <path class="cls-4" d="m527.69,44.85c0,1.22-.06,2.43-.19,3.58-1.4.04-2.66.29-3.77.8-.88.38-1.87.19-2.53-.46-5.62-5.59-11.79-9.76-18.48-12.49l-4.29-1.55c-6.89-2.18-14.31-2.91-22.19-2.2-.94.06-1.82-.42-2.24-1.28-.77-1.55-2.07-2.93-3.77-4.11v-.42c2.53-1.09,6.2-2.22,11.04-3.35,4.86-1.15,10.04-1.72,15.59-1.72,4.96,0,9.34.57,13.14,1.74,3.79,1.17,7.02,2.79,9.7,4.88,2.6,2.09,4.57,4.53,5.93,7.35,1.36,2.81,2.05,5.89,2.05,9.24Z"/>
    <path class="cls-2" d="m525.64,35.6c-1.36-2.81-3.33-5.26-5.93-7.35-2.68-2.09-5.91-3.71-9.7-4.88-3.81-1.17-8.19-1.74-13.14-1.74-5.55,0-10.73.57-15.59,1.72-4.84,1.13-8.51,2.26-11.04,3.35v.42c1.7,1.19,3,2.56,3.77,4.11.42.86,1.3,1.34,2.24,1.28,7.88-.71,15.31.02,22.19,2.2l4.29,1.55c6.7,2.74,12.86,6.91,18.48,12.49.65.65,1.65.84,2.53.46,1.11-.52,2.37-.77,3.77-.8.13-1.15.19-2.35.19-3.58,0-3.35-.69-6.43-2.05-9.24Z"/>
    <rect class="cls-5" x="482.06" y="95.72" width="23.25" height="15.59"/>
    <path class="cls-1" d="m483.48,67.91v19.78h20.18s-19.95-19.84-20.18-19.78Z"/>
    <path class="cls-4" d="m0,59.17h7.06v9.41c2.17-6.15,7.69-11.31,18.82-9.59l-.91,6.97c-12.57-2.35-17.91,5.06-17.91,18.18v26.78H0v-51.74Z"/>
    <path class="cls-4" d="m27.59,85.04c0-18.18,11.58-26.87,24.33-26.87,8.78,0,16.56,4.34,19.81,12.94v-11.94h7.15v51.65h-7.15v-11.58c-3.16,8.5-10.95,12.85-19.72,12.85-12.85,0-24.42-8.68-24.42-27.05Zm44.33,0c0-12.66-7.51-20.54-18.73-20.54s-18.54,7.78-18.54,20.54,7.42,20.71,18.73,20.71,18.54-7.96,18.54-20.71Z"/>
    <path class="cls-4" d="m91.18,47.04c0-2.53,1.9-4.16,4.34-4.16s4.52,1.63,4.52,4.16-2.08,4.16-4.52,4.16-4.34-1.63-4.34-4.16Zm.82,12.12h6.97v51.74h-6.97v-51.74Z"/>
    <path class="cls-4" d="m111.71,59.17h7.06v11.04c2.35-7.06,8.32-11.94,17.73-11.94,14.65,0,21.53,8.59,21.53,24.97v27.68h-7.05v-27.23c0-12.85-5.07-19-16.19-19s-16.01,7.51-16.01,20.53v25.69h-7.06v-51.74Z"/>
    <path class="cls-3" d="m198.54,54.28c8.87,0,16.01,4.97,18.64,14.65l10.31-1.9c-4.07-16.64-17.09-22.43-28.95-22.43s-22.82,5.71-27.95,18.02l11.1,1.51c3.42-6.27,9.37-9.85,16.85-9.85Z"/>
    <path class="cls-5" d="m198.54,102.23c-12.21,0-20.08-8.96-20.08-23.88,0-5.6,1.15-10.4,3.23-14.21l-11.1-1.51c-1.83,4.39-2.89,9.61-2.89,15.72,0,23.88,15.19,33.65,30.84,33.65,11.94,0,25.15-5.97,29.04-22.98l-10.31-1.9c-2.53,10.04-9.68,15.11-18.73,15.11Z"/>
    <path class="cls-5" d="m237.44,110.91h10.13v-26.05c0-4.76.72-8.58,2.2-11.46l-12.33-1.68v39.19Z"/>
    <path class="cls-3" d="m264.49,58.26c-9.23,0-14.83,4.25-16.92,10.31v-26.23h-10.13v29.38l12.33,1.68c2.15-4.19,5.92-6.36,11.55-6.36,7.4,0,11.67,3.03,13.23,9.74l10.61,1.44c-1.25-13.87-8.33-19.96-20.68-19.96Z"/>
    <path class="cls-5" d="m274.55,76.77c.46,1.98.7,4.27.7,6.91v27.23h10.13v-28.04c0-1.65-.09-3.18-.22-4.65l-10.61-1.44Z"/>
    <path class="cls-5" d="m345.75,86.47l-50.87-6.92c-.3,1.76-.46,3.59-.46,5.5,0,16.19,10.49,26.86,26.59,26.86,11.67,0,19.81-4.88,23.97-14.47l-9.31-1.44c-2.53,4.97-7.24,7.42-14.47,7.42-10.04,0-16.28-5.7-16.65-15.74h41.16c.03-.41.02-.79.04-1.19Z"/>
    <path class="cls-3" d="m320.57,58.17c-13.62,0-23.51,8.48-25.68,21.37l50.87,6.92c.73-16.72-9.11-28.3-25.18-28.3Zm-15.74,21.53c1.18-8.96,7.23-13.48,15.92-13.48,9.14,0,14.75,5.25,15.47,13.48h-31.39Z"/>
    <path class="cls-3" d="m364.25,85.04c0-10.86,6.51-18.28,15.92-18.28,7.6,0,12.39,3.53,14.92,10.86l8.68-1.72c-3.25-11.76-11.04-17.73-24.06-17.73-14.93,0-25.6,11.22-25.6,26.87,0,.88.04,1.73.11,2.58l10.34,1.41c-.21-1.27-.32-2.6-.32-3.99Z"/>
    <path class="cls-3" d="m403.6,94.17l-8.68-1.72c-.08.23-.17.45-.25.67l8.89,1.21c.01-.05.03-.11.05-.16Z"/>
    <path class="cls-5" d="m394.67,93.13c-2.39,6.37-7.67,10.09-14.49,10.09-8.19,0-14.19-5.63-15.6-14.19l-10.34-1.41c1.11,14.28,11.4,24.28,25.49,24.28,12.33,0,20.98-6.54,23.83-17.57l-8.89-1.21Z"/>
    <polygon class="cls-5" points="414 110.91 424.13 110.91 424.13 97.14 414 95.76 414 110.91"/>
    <polygon class="cls-3" points="435.08 84.04 460.49 59.17 447.02 59.17 424.13 82.96 424.13 42.34 414 42.34 414 95.76 424.13 97.14 424.13 85.4 436.72 98.85 451.7 100.89 435.08 84.04"/>
    <polygon class="cls-5" points="436.72 98.85 448.01 110.91 461.58 110.91 451.7 100.89 436.72 98.85"/>
  </g>
</svg>